<?xml version="1.0" encoding="UTF-8" standalone="no"?>
<svg width="306px" height="36px" viewBox="0 0 306 36" version="1.1" xmlns="http://www.w3.org/2000/svg" xmlns:xlink="http://www.w3.org/1999/xlink">
    <!-- Generator: Sketch 39.1 (31720) - http://www.bohemiancoding.com/sketch -->
    <title>eis_logo</title>
    <desc>Created with Sketch.</desc>
    <defs>
        <polygon id="path-1" points="0 36 305.922 36 305.922 0.017 0 0.017"></polygon>
    </defs>
    <g id="Page-1" stroke="none" stroke-width="1" fill="none" fill-rule="evenodd">
        <g id="Icon-Set" transform="translate(-253.000000, -507.000000)">
            <g id="eis_logo" transform="translate(253.000000, 506.000000)">
                <polygon id="Fill-1" fill="#FFFFFF" points="38.444 8.8489 47.411 8.8489 47.411 10.2159 40.065 10.2159 40.065 16.8019 46.929 16.8019 46.929 18.1699 40.065 18.1699 40.065 25.5669 47.639 25.5669 47.639 26.9339 38.444 26.9339"></polygon>
                <g id="Group-30" transform="translate(0.000000, 0.983500)">
                    <path d="M50.6803,16.7306 L53.4413,16.7306 C55.5693,16.7306 57.2913,15.7676 57.2913,12.9816 C57.2913,10.2466 55.9493,9.2326 53.4413,9.2326 L50.6803,9.2326 L50.6803,16.7306 L50.6803,16.7306 Z M49.0593,7.8656 L53.9483,7.8656 C57.4183,7.8656 58.9123,9.9176 58.9123,12.9816 C58.9123,15.7676 57.5443,18.0986 53.3903,18.0986 L50.6803,18.0986 L50.6803,25.9506 L49.0593,25.9506 L49.0593,7.8656 L49.0593,7.8656 Z" id="Fill-2" fill="#FFFFFF"></path>
                    <path d="M66.2096,24.8868 C68.7686,24.8868 70.3636,22.7838 70.3636,16.9078 C70.3636,11.0318 68.7686,8.9288 66.2096,8.9288 C63.6516,8.9288 62.0556,11.0318 62.0556,16.9078 C62.0556,22.7838 63.6516,24.8868 66.2096,24.8868 M66.2096,7.5618 C69.8826,7.5618 71.9846,10.4238 71.9846,16.9078 C71.9846,23.3928 69.8826,26.2538 66.2096,26.2538 C62.4866,26.2538 60.4346,23.3928 60.4346,16.9078 C60.4346,10.4238 62.4866,7.5618 66.2096,7.5618" id="Fill-4" fill="#FFFFFF"></path>
                    <polygon id="Fill-6" fill="#FFFFFF" points="74.0397 7.8654 75.6607 7.8654 75.6607 17.3384 75.7117 17.3384 82.6257 7.8654 84.3487 7.8654 78.8267 15.4134 84.9567 25.9504 83.2347 25.9504 77.8137 16.7814 75.6607 19.6184 75.6607 25.9504 74.0397 25.9504"></polygon>
                    <path d="M93.2921,19.3146 L90.5061,9.1316 L90.4551,9.1316 L87.6691,19.3146 L93.2921,19.3146 Z M89.4681,7.8656 L91.4941,7.8656 L96.8391,25.9506 L95.1161,25.9506 L93.6471,20.6816 L87.3141,20.6816 L85.8461,25.9506 L84.1231,25.9506 L89.4681,7.8656 Z" id="Fill-8" fill="#FFFFFF"></path>
                    <mask id="mask-2" fill="white">
                        <use xlink:href="#path-1"></use>
                    </mask>
                    <g id="Clip-11"></g>
                    <polygon id="Fill-10" fill="#FFFFFF" mask="url(#mask-2)" points="102.997 25.95 105.885 25.95 105.885 7.865 102.997 7.865"></polygon>
                    <polygon id="Fill-12" fill="#FFFFFF" mask="url(#mask-2)" points="108.1134 7.8654 111.6344 7.8654 116.8784 21.3414 116.9284 21.3414 116.9284 7.8654 119.6644 7.8654 119.6644 25.9504 116.1424 25.9504 110.8994 12.1204 110.8494 12.1204 110.8494 25.9504 108.1134 25.9504"></polygon>
                    <polygon id="Fill-13" fill="#FFFFFF" mask="url(#mask-2)" points="124.9865 10.297 120.6805 10.297 120.6805 7.865 132.1035 7.865 132.1035 10.297 127.8745 10.297 127.8745 25.95 124.9865 25.95"></polygon>
                    <polygon id="Fill-14" fill="#FFFFFF" mask="url(#mask-2)" points="133.1193 7.8654 142.8963 7.8654 142.8963 10.2974 136.0073 10.2974 136.0073 15.3114 142.4913 15.3114 142.4913 17.7434 136.0073 17.7434 136.0073 23.5184 143.0993 23.5184 143.0993 25.9504 133.1193 25.9504"></polygon>
                    <path d="M149.8654,15.92 C151.7144,15.92 152.7524,14.806 152.7524,12.982 C152.7524,11.057 151.9414,10.043 150.0164,10.043 L147.5594,10.043 L147.5594,15.92 L149.8654,15.92 Z M144.6724,7.865 L151.0554,7.865 C153.5884,7.865 155.6394,9.157 155.6394,12.525 C155.6394,14.857 154.6274,16.654 152.6264,16.958 L152.6264,17.009 C154.4494,17.187 155.3614,18.174 155.4624,20.707 C155.4884,21.898 155.4884,23.291 155.5634,24.38 C155.6394,25.267 156.0444,25.672 156.4244,25.95 L153.1574,25.95 C152.8794,25.621 152.7524,25.064 152.6774,24.355 C152.6264,23.822 152.6004,23.266 152.6004,22.733 C152.6004,22.201 152.5754,21.594 152.5504,20.936 C152.4734,18.959 151.8664,18.099 149.9154,18.099 L147.5594,18.099 L147.5594,25.95 L144.6724,25.95 L144.6724,7.865 Z" id="Fill-15" fill="#FFFFFF" mask="url(#mask-2)"></path>
                    <path d="M164.9118,19.213 L162.8358,10.297 L162.7848,10.297 L160.6318,19.213 L164.9118,19.213 Z M161.0618,7.865 L164.7608,7.865 L169.5218,25.95 L166.5078,25.95 L165.3928,21.518 L160.0998,21.518 L158.9338,25.95 L155.9208,25.95 L161.0618,7.865 Z" id="Fill-16" fill="#FFFFFF" mask="url(#mask-2)"></path>
                    <path d="M181.278,19.4659 L181.278,19.8459 C181.278,23.1129 179.935,26.3049 175.706,26.3049 C171.146,26.3049 169.727,23.3669 169.727,16.9079 C169.727,10.4479 171.146,7.5109 175.731,7.5109 C180.873,7.5109 181.176,11.2839 181.176,13.1849 L181.176,13.5139 L178.289,13.5139 L178.289,13.2099 C178.289,11.5129 177.783,9.6129 175.706,9.6889 C173.552,9.6889 172.615,11.0059 172.615,16.8319 C172.615,22.6569 173.552,24.1269 175.706,24.1269 C178.137,24.1269 178.39,21.4669 178.39,19.7699 L178.39,19.4659 L181.278,19.4659 Z" id="Fill-17" fill="#FFFFFF" mask="url(#mask-2)"></path>
                    <polygon id="Fill-18" fill="#FFFFFF" mask="url(#mask-2)" points="185.6364 10.297 181.3304 10.297 181.3304 7.865 192.7534 7.865 192.7534 10.297 188.5244 10.297 188.5244 25.95 185.6364 25.95"></polygon>
                    <polygon id="Fill-19" fill="#FFFFFF" mask="url(#mask-2)" points="193.643 25.95 196.531 25.95 196.531 7.865 193.643 7.865"></polygon>
                    <polygon id="Fill-20" fill="#FFFFFF" mask="url(#mask-2)" points="197.1139 7.8654 200.1789 7.8654 203.2439 22.3034 203.2949 22.3034 206.5369 7.8654 209.6019 7.8654 205.0429 25.9504 201.3699 25.9504"></polygon>
                    <polygon id="Fill-21" fill="#FFFFFF" mask="url(#mask-2)" points="210.3121 7.8654 220.0891 7.8654 220.0891 10.2974 213.2001 10.2974 213.2001 15.3114 219.6841 15.3114 219.6841 17.7434 213.2001 17.7434 213.2001 23.5184 220.2921 23.5184 220.2921 25.9504 210.3121 25.9504"></polygon>
                    <path d="M230.6549,20.4288 L230.6549,21.0618 C230.6549,22.4298 231.0089,23.4678 232.5039,23.4678 C233.9989,23.4678 234.4289,22.3538 234.4289,21.3158 C234.4289,17.4138 226.6529,19.5928 226.6529,12.8298 C226.6529,9.9428 228.1979,7.5108 232.5799,7.5108 C236.8359,7.5108 238.3549,9.6888 238.3549,12.4498 L238.3549,12.8798 L234.2519,12.8798 C234.2519,11.9938 234.1249,11.3608 233.8969,10.9808 C233.6439,10.5498 233.2139,10.3478 232.6049,10.3478 C231.5159,10.3478 230.9079,10.9808 230.9079,12.2978 C230.9079,16.0978 238.6839,14.1468 238.6839,20.5558 C238.6839,24.6838 236.4049,26.3048 232.5039,26.3048 C229.3879,26.3048 226.5509,25.3678 226.5509,21.5938 L226.5509,20.4288 L230.6549,20.4288 Z" id="Fill-22" fill="#FFFFFF" mask="url(#mask-2)"></path>
                    <polygon id="Fill-23" fill="#FFFFFF" mask="url(#mask-2)" points="243.4489 18.8331 238.8639 7.8651 243.5749 7.8651 245.6009 14.5771 245.6519 14.5771 247.7289 7.8651 252.2889 7.8651 247.7039 18.8331 247.7039 25.9501 243.4489 25.9501"></polygon>
                    <path d="M255.9645,20.4288 L255.9645,21.0618 C255.9645,22.4298 256.3185,23.4678 257.8145,23.4678 C259.3085,23.4678 259.7385,22.3538 259.7385,21.3158 C259.7385,17.4138 251.9625,19.5928 251.9625,12.8298 C251.9625,9.9428 253.5075,7.5108 257.8895,7.5108 C262.1455,7.5108 263.6645,9.6888 263.6645,12.4498 L263.6645,12.8798 L259.5615,12.8798 C259.5615,11.9938 259.4355,11.3608 259.2065,10.9808 C258.9535,10.5498 258.5235,10.3478 257.9145,10.3478 C256.8255,10.3478 256.2175,10.9808 256.2175,12.2978 C256.2175,16.0978 263.9935,14.1468 263.9935,20.5558 C263.9935,24.6838 261.7145,26.3048 257.8145,26.3048 C254.6975,26.3048 251.8605,25.3678 251.8605,21.5938 L251.8605,20.4288 L255.9645,20.4288 Z" id="Fill-24" fill="#FFFFFF" mask="url(#mask-2)"></path>
                    <polygon id="Fill-25" fill="#FFFFFF" mask="url(#mask-2)" points="268.0485 11.3097 264.2495 11.3097 264.2495 7.8657 276.1035 7.8657 276.1035 11.3097 272.3045 11.3097 272.3045 25.9507 268.0485 25.9507"></polygon>
                    <polygon id="Fill-26" fill="#FFFFFF" mask="url(#mask-2)" points="276.943 7.8654 287.404 7.8654 287.404 11.3094 281.198 11.3094 281.198 14.9314 287.024 14.9314 287.024 18.3774 281.198 18.3774 281.198 22.5064 287.682 22.5064 287.682 25.9504 276.943 25.9504"></polygon>
                    <polygon id="Fill-27" fill="#FFFFFF" mask="url(#mask-2)" points="289.1022 7.8654 295.3332 7.8654 297.5632 19.7454 297.6132 19.7454 299.7662 7.8654 305.9212 7.8654 305.9212 25.9504 301.9702 25.9504 301.9702 11.8674 301.9192 11.8674 299.1592 25.9504 295.8662 25.9504 292.9532 11.8674 292.9022 11.8674 292.9022 25.9504 289.1022 25.9504"></polygon>
                    <polygon id="Fill-28" fill="#FFFFFF" mask="url(#mask-2)" points="0 0.0165 0 0.7095 0 5.1565 0 30.8595 0 35.9995 5.141 35.9995 25.702 35.9995 25.702 30.8595 5.141 30.8595 5.141 25.7185 20.562 25.7185 20.562 20.5785 5.141 20.5785 5.141 5.1565 25.702 5.1565 25.702 0.0165"></polygon>
                    <polygon id="Fill-29" fill="#F9FBFE" mask="url(#mask-2)" points="10.281 15.438 25.702 15.438 25.702 10.297 10.281 10.297"></polygon>
                </g>
            </g>
        </g>
    </g>
</svg>